<mxfile host="65bd71144e">
    <diagram id="UjwIs3UREq_Xr7HcM-xB" name="Page-1">
        <mxGraphModel dx="2132" dy="907" grid="1" gridSize="10" guides="1" tooltips="1" connect="1" arrows="1" fold="1" page="0" pageScale="1" pageWidth="850" pageHeight="1100" background="none" math="0" shadow="0">
            <root>
                <mxCell id="0"/>
                <mxCell id="1" parent="0"/>
                <mxCell id="24" value="Externes System&lt;div&gt;zum Erstellen von neuen Versionen&lt;/div&gt;" style="text;html=1;align=center;verticalAlign=middle;whiteSpace=wrap;rounded=0;" parent="1" vertex="1">
                    <mxGeometry x="-560" y="200.73000000000002" width="120" height="60" as="geometry"/>
                </mxCell>
                <mxCell id="25" value="&quot;itcs-Datenbank&quot;" style="text;html=1;align=center;verticalAlign=middle;whiteSpace=wrap;rounded=0;" parent="1" vertex="1">
                    <mxGeometry x="-361" y="200.73000000000002" width="122" height="45" as="geometry"/>
                </mxCell>
                <mxCell id="26" value="System zur Verwaltung Anzeigetafeln" style="text;html=1;align=center;verticalAlign=middle;whiteSpace=wrap;rounded=0;" parent="1" vertex="1">
                    <mxGeometry x="-130" y="200.73000000000002" width="132" height="45" as="geometry"/>
                </mxCell>
                <mxCell id="27" value="" style="image;html=1;image=img/lib/clip_art/computers/Database_128x128.png" parent="1" vertex="1">
                    <mxGeometry x="-540" y="118.5" width="80" height="80" as="geometry"/>
                </mxCell>
                <mxCell id="28" value="" style="image;html=1;image=img/lib/clip_art/computers/Database_128x128.png" parent="1" vertex="1">
                    <mxGeometry x="-334.1" y="118.5" width="80" height="80" as="geometry"/>
                </mxCell>
                <mxCell id="33" value="" style="shape=doubleArrow;direction=south;whiteSpace=wrap;html=1;fillColor=#9999FF;rotation=-90;" parent="1" vertex="1">
                    <mxGeometry x="-404.09999999999997" y="110" width="16" height="97" as="geometry"/>
                </mxCell>
                <mxCell id="34" value="" style="image;html=1;image=img/lib/clip_art/computers/Data_Filtering_128x128.png" parent="1" vertex="1">
                    <mxGeometry x="-194.10000000000002" y="110" width="36" height="40" as="geometry"/>
                </mxCell>
                <mxCell id="35" value="" style="shape=doubleArrow;direction=south;whiteSpace=wrap;html=1;fillColor=#9999FF;rotation=-90;" parent="1" vertex="1">
                    <mxGeometry x="-184.09999999999997" y="110" width="16" height="97" as="geometry"/>
                </mxCell>
                <mxCell id="36" value="Exportroutine filtert und bereitet Daten auf" style="text;html=1;align=center;verticalAlign=middle;whiteSpace=wrap;rounded=0;" parent="1" vertex="1">
                    <mxGeometry x="-229.15" y="170" width="106.1" height="40" as="geometry"/>
                </mxCell>
                <mxCell id="37" value="" style="image;html=1;image=img/lib/clip_art/computers/Network_128x128.png" parent="1" vertex="1">
                    <mxGeometry x="-110" y="118.5" width="80" height="80" as="geometry"/>
                </mxCell>
                <mxCell id="38" value="Exportroutine&lt;div&gt;generiert zusätzliche Entitäten&lt;/div&gt;" style="text;html=1;align=center;verticalAlign=middle;whiteSpace=wrap;rounded=0;" parent="1" vertex="1">
                    <mxGeometry x="-449.15" y="180" width="109.15" height="40" as="geometry"/>
                </mxCell>
                <mxCell id="39" value="" style="shape=image;html=1;verticalLabelPosition=bottom;verticalAlign=top;imageAspect=1;aspect=fixed;image=img/clipart/Gear_128x128.png" parent="1" vertex="1">
                    <mxGeometry x="-414" y="110" width="35.8" height="42" as="geometry"/>
                </mxCell>
            </root>
        </mxGraphModel>
    </diagram>
</mxfile>